<?xml version="1.0" encoding="UTF-8"?>
<svg version="1.1" xmlns="http://www.w3.org/2000/svg" width="256" height="256">
<path d="M0 0 C0.98311157 -0.00807175 1.96622314 -0.01614349 2.97912598 -0.02445984 C5.06028497 -0.03827093 7.14146634 -0.04900634 9.22265625 -0.05688477 C11.33079767 -0.06836314 13.43891098 -0.08874857 15.546875 -0.1184082 C35.24743221 -0.3952926 51.84337058 1.93044651 66.84375 16.046875 C78.98064024 28.94232088 83.26204031 43.41009916 83.1015625 60.7109375 C83.0987326 61.87459335 83.09590271 63.03824921 83.09298706 64.23716736 C83.08186231 67.92514674 83.05677183 71.61287624 83.03125 75.30078125 C83.02121025 77.81314751 83.01208615 80.32551762 83.00390625 82.83789062 C82.98194823 88.9714383 82.94854793 95.10484191 82.90625 101.23828125 C83.93105469 101.191875 84.95585937 101.14546875 86.01171875 101.09765625 C87.37236656 101.06012114 88.73304605 101.02372284 90.09375 100.98828125 C90.76728516 100.95476562 91.44082031 100.92125 92.13476562 100.88671875 C95.79666975 100.81526696 97.72775622 101.12293947 100.83203125 103.12890625 C104.17858593 106.5321822 104.02909394 108.57062143 104.01977539 113.24853516 C104.01969986 114.50969147 104.01962433 115.77084778 104.01954651 117.07022095 C104.01443949 118.45176228 104.00922349 119.83330321 104.00390625 121.21484375 C104.00204144 122.62446035 104.00061783 124.03407759 103.99961853 125.44369507 C103.99579833 129.15582057 103.98597228 132.86790703 103.97491455 136.58001709 C103.96468975 140.36714144 103.96011862 144.15427208 103.95507812 147.94140625 C103.94434958 155.37371573 103.92727911 162.80599302 103.90625 170.23828125 C105.0509375 170.43357422 105.0509375 170.43357422 106.21875 170.6328125 C112.47132554 172.04145961 116.22363665 176.32813012 119.90625 181.23828125 C125.05762495 189.48048117 123.90560838 203.91559948 122.28125 213.30078125 C120.63217082 219.14032876 117.47045845 223.66148441 112.2890625 226.84765625 C109.85745369 228.07379327 107.42438549 229.20315836 104.90625 230.23828125 C104.89223145 231.10779419 104.89223145 231.10779419 104.87792969 231.99487305 C104.8240093 234.63935071 104.74040871 237.28210018 104.65625 239.92578125 C104.64207031 240.83779297 104.62789062 241.74980469 104.61328125 242.68945312 C104.45616336 247.01019509 104.31152046 249.58836582 101.984375 253.3203125 C98.40482235 256.62399737 96.04816254 256.36897114 91.24552917 256.38545227 C90.55314425 256.38912896 89.86075933 256.39280565 89.14739305 256.39659375 C86.81594668 256.40764993 84.48454486 256.41147768 82.15307617 256.4152832 C80.48603676 256.42154636 78.81899875 256.42819303 77.15196228 256.43519592 C72.61470448 256.45261859 68.07745722 256.46316099 63.54017425 256.47140145 C60.70686328 256.47654861 57.87355561 256.48262445 55.04024696 256.48891258 C46.17957871 256.50796765 37.31891882 256.52219847 28.45823401 256.53052455 C18.22234479 256.54030108 7.98667157 256.56663009 -2.24914151 256.60702544 C-10.15577818 256.63716048 -18.06235283 256.65199091 -25.96904582 256.65530556 C-30.69376906 256.65765892 -35.4182616 256.66665633 -40.14292336 256.69176674 C-44.58757932 256.71500706 -49.03185204 256.71929708 -53.47655296 256.70900536 C-55.10798795 256.70850891 -56.73944155 256.71486143 -58.37081909 256.7285614 C-60.59836675 256.7462214 -62.82453024 256.73920479 -65.05207825 256.72602844 C-66.2985101 256.7284168 -67.54494196 256.73080515 -68.82914448 256.73326588 C-72.69497448 256.14712265 -74.3384169 254.95742039 -77.09375 252.23828125 C-78.26844444 249.88889237 -78.29409889 248.2875492 -78.41015625 245.66796875 C-78.45205078 244.77207031 -78.49394531 243.87617188 -78.53710938 242.953125 C-78.57642578 242.01597656 -78.61574219 241.07882813 -78.65625 240.11328125 C-78.69943359 239.16839844 -78.74261719 238.22351563 -78.78710938 237.25 C-78.89334072 234.91291033 -78.99538176 232.57571295 -79.09375 230.23828125 C-80.07214844 229.83609375 -80.07214844 229.83609375 -81.0703125 229.42578125 C-88.25718782 226.20334748 -92.80520241 222.69302332 -95.8984375 215.3203125 C-97.33703954 210.22608474 -97.28575653 204.93328768 -97.34375 199.67578125 C-97.35325684 198.96752197 -97.36276367 198.2592627 -97.37255859 197.52954102 C-97.3248584 189.90369295 -95.97178775 183.33582844 -91.09375 177.23828125 C-87.25265202 173.51076412 -83.59978585 170.23828125 -78.09375 170.23828125 C-78.10263245 169.46011551 -78.11151489 168.68194977 -78.1206665 167.88020325 C-78.20089155 160.5384399 -78.26175415 153.19688977 -78.30099869 145.85480213 C-78.32185327 142.08033832 -78.3501309 138.3062374 -78.39550781 134.53198242 C-78.4390432 130.88799675 -78.46290313 127.24435961 -78.47325897 123.6001339 C-78.48063669 122.21145836 -78.49504401 120.8228014 -78.51667023 119.43427467 C-78.54580017 117.48607694 -78.54738471 115.53752678 -78.54785156 113.58911133 C-78.55673401 112.48102615 -78.56561646 111.37294098 -78.57476807 110.23127747 C-77.98225376 106.54452803 -76.6648994 104.89399168 -74.09375 102.23828125 C-71.02841836 100.70561543 -67.82620728 101.13551654 -64.46875 101.17578125 C-63.40914062 101.18254883 -63.40914062 101.18254883 -62.328125 101.18945312 C-60.58329725 101.2012425 -58.838513 101.21917801 -57.09375 101.23828125 C-57.10041183 100.60094055 -57.10707367 99.96359985 -57.11393738 99.3069458 C-57.18074626 92.62248828 -57.22573814 85.93812693 -57.25854492 79.25341797 C-57.27355232 76.76477195 -57.29396464 74.27615202 -57.32006836 71.78759766 C-57.35680706 68.192968 -57.3735575 64.59869061 -57.38671875 61.00390625 C-57.40220261 59.90653137 -57.41768646 58.80915649 -57.43363953 57.67852783 C-57.43701326 41.89333959 -52.31653936 27.81190447 -41.30859375 16.296875 C-29.26502407 5.10293986 -16.24276765 0.12769636 0 0 Z M-30.5546875 36.0234375 C-43.09032642 54.06330367 -37.09375 83.56040362 -37.09375 101.23828125 C-4.09375 101.23828125 28.90625 101.23828125 62.90625 101.23828125 C66.27347984 62.68783475 66.27347984 62.68783475 51.05859375 30.33984375 C42.997444 22.74345213 34.4778143 20.10363844 23.58984375 20 C22.37229149 19.98789238 22.37229149 19.98789238 21.13014221 19.97554016 C19.41124589 19.96172636 17.69232245 19.95099214 15.97338867 19.94311523 C14.23274578 19.93164131 12.49213679 19.91126284 10.75170898 19.8815918 C-6.41834368 19.58918961 -19.05829884 22.34850944 -30.5546875 36.0234375 Z " fill="#FDB744" transform="translate(115.09375,-0.23828125)"/>
<path d="M0 0 C0.76548102 -0.00523668 1.53096203 -0.01047336 2.31963944 -0.01586872 C4.88666866 -0.0308798 7.45349874 -0.03157412 10.02056885 -0.03224182 C11.86037533 -0.03986265 13.70017863 -0.04829001 15.53997803 -0.0574646 C20.54012498 -0.07942604 25.54021077 -0.0882109 30.54040051 -0.09329104 C33.66488306 -0.09693314 36.78934955 -0.10317249 39.91382599 -0.11029243 C50.81595057 -0.13479415 61.71802752 -0.14784007 72.62017822 -0.15138245 C82.77901193 -0.15501668 92.93754331 -0.1849022 103.09628463 -0.22678703 C111.81999552 -0.26149291 120.54360626 -0.27693095 129.26738572 -0.27762848 C134.47678187 -0.27842129 139.68587024 -0.28716173 144.89519501 -0.31562614 C149.79712114 -0.34181124 154.69848443 -0.34400943 159.60044861 -0.3279705 C161.39671812 -0.32615628 163.19302001 -0.33284436 164.98921967 -0.34878922 C181.38133405 -0.48539626 181.38133405 -0.48539626 187.04126358 3.90240383 C194.36099226 11.10352603 196.51539889 17.08910681 196.62652588 27.38963318 C196.59800078 45.72515855 196.59800078 45.72515855 190.36529541 53.47727966 C186.90910675 56.69559299 182.76647211 58.49387847 178.43560791 60.27415466 C178.42158936 61.1436676 178.42158936 61.1436676 178.4072876 62.03074646 C178.35336721 64.67522412 178.26976662 67.3179736 178.18560791 69.96165466 C178.17142822 70.87366638 178.15724854 71.7856781 178.14263916 72.72532654 C177.98552127 77.04606851 177.84087837 79.62423923 175.51373291 83.35618591 C171.93418026 86.65987078 169.57752045 86.40484455 164.77488708 86.42132568 C164.08250216 86.42500237 163.39011724 86.42867906 162.67675096 86.43246716 C160.34530459 86.44352335 158.01390277 86.44735109 155.68243408 86.45115662 C154.01539467 86.45741978 152.34835666 86.46406644 150.68132019 86.47106934 C146.14406239 86.488492 141.60681513 86.49903441 137.06953216 86.50727487 C134.23622119 86.51242203 131.40291352 86.51849787 128.56960487 86.524786 C119.70893662 86.54384106 110.84827673 86.55807188 101.98759192 86.56639796 C91.7517027 86.57617449 81.51602948 86.60250351 71.2802164 86.64289886 C63.37357973 86.6730339 55.46700508 86.68786433 47.56031209 86.69117898 C42.83558886 86.69353233 38.11109631 86.70252975 33.38643456 86.72764015 C28.94177859 86.75088048 24.49750587 86.75517049 20.05280495 86.74487877 C18.42136996 86.74438232 16.78991636 86.75073484 15.15853882 86.76443481 C12.93099116 86.78209481 10.70482767 86.77507821 8.47727966 86.76190186 C7.23084781 86.76429021 5.98441595 86.76667856 4.70021343 86.76913929 C0.83438343 86.18299606 -0.80905899 84.9932938 -3.56439209 82.27415466 C-4.73908653 79.92476578 -4.76474098 78.32342262 -4.88079834 75.70384216 C-4.92269287 74.80794373 -4.9645874 73.91204529 -5.00775146 72.98899841 C-5.04706787 72.05184998 -5.08638428 71.11470154 -5.12689209 70.14915466 C-5.17007568 69.20427185 -5.21325928 68.25938904 -5.25775146 67.28587341 C-5.36398281 64.94878374 -5.46602385 62.61158636 -5.56439209 60.27415466 C-6.21665771 60.00602966 -6.86892334 59.73790466 -7.54095459 59.46165466 C-14.72782991 56.23922089 -19.2758445 52.72889673 -22.36907959 45.35618591 C-23.80768163 40.26195815 -23.75639862 34.96916109 -23.81439209 29.71165466 C-23.82389893 29.00339539 -23.83340576 28.29513611 -23.84320068 27.56541443 C-23.79550049 19.93956636 -22.44242984 13.37170185 -17.56439209 7.27415466 C-11.95559881 1.8312128 -7.7594981 -0.02623195 0 0 Z " fill="#293C7A" transform="translate(41.56439208984375,169.72584533691406)"/>
<path d="M0 0 C0.98311157 -0.00807175 1.96622314 -0.01614349 2.97912598 -0.02445984 C5.06028497 -0.03827093 7.14146634 -0.04900634 9.22265625 -0.05688477 C11.33079767 -0.06836314 13.43891098 -0.08874857 15.546875 -0.1184082 C35.24743221 -0.3952926 51.84337058 1.93044651 66.84375 16.046875 C78.98064024 28.94232088 83.26204031 43.41009916 83.1015625 60.7109375 C83.0987326 61.87459335 83.09590271 63.03824921 83.09298706 64.23716736 C83.08186231 67.92514674 83.05677183 71.61287624 83.03125 75.30078125 C83.02121025 77.81314751 83.01208615 80.32551762 83.00390625 82.83789062 C82.98194819 88.9714493 82.94747161 95.10482302 82.90625 101.23828125 C76.30625 101.23828125 69.70625 101.23828125 62.90625 101.23828125 C62.8969043 99.85229736 62.88755859 98.46631348 62.87792969 97.03833008 C62.83771436 91.84010004 62.77187077 86.64244241 62.69873047 81.44458008 C62.67070243 79.20539771 62.64939867 76.96611974 62.63525391 74.72680664 C62.55846043 50.60347162 62.55846043 50.60347162 50.28125 30.5625 C42.59996001 23.39685216 33.84928481 21.09765571 23.58984375 21 C22.37229149 20.98789238 22.37229149 20.98789238 21.13014221 20.97554016 C19.41124589 20.96172636 17.69232245 20.95099214 15.97338867 20.94311523 C14.23274578 20.93164131 12.49213679 20.91126284 10.75170898 20.8815918 C-4.22973383 20.62646115 -15.48997264 22.169285 -26.77734375 32.828125 C-33.28417558 39.72439315 -36.1261798 48.85126612 -36.29907227 58.2121582 C-36.31901749 59.17277664 -36.33896271 60.13339508 -36.35951233 61.12312317 C-36.38458107 62.65932564 -36.38458107 62.65932564 -36.41015625 64.2265625 C-36.43093735 65.28489792 -36.45171844 66.34323334 -36.47312927 67.43363953 C-36.53838103 70.80595566 -36.59739637 74.17834799 -36.65625 77.55078125 C-36.6994584 79.84050259 -36.74307343 82.1302163 -36.78710938 84.41992188 C-36.89403746 90.02596407 -36.99537344 95.63208273 -37.09375 101.23828125 C-43.69375 101.23828125 -50.29375 101.23828125 -57.09375 101.23828125 C-57.16837982 93.91001566 -57.22257831 86.5819755 -57.25854492 79.25341797 C-57.27355232 76.76477195 -57.29396464 74.27615202 -57.32006836 71.78759766 C-57.35680706 68.192968 -57.3735575 64.59869061 -57.38671875 61.00390625 C-57.40220261 59.90653137 -57.41768646 58.80915649 -57.43363953 57.67852783 C-57.43701326 41.89333959 -52.31653936 27.81190447 -41.30859375 16.296875 C-29.26502407 5.10293986 -16.24276765 0.12769636 0 0 Z " fill="#CCCCCC" transform="translate(115.09375,-0.23828125)"/>
<path d="M0 0 C60.06 0 120.12 0 182 0 C182 20 182 20 178 25 C175.10128022 26.44935989 172.57896748 26.13605343 169.33927917 26.14717102 C168.30070179 26.15268605 168.30070179 26.15268605 167.24114305 26.1583125 C164.90969668 26.16936868 162.57829486 26.17319643 160.24682617 26.17700195 C158.57978676 26.18326511 156.91274875 26.18991178 155.24571228 26.19691467 C150.70845448 26.21433734 146.17120722 26.22487974 141.63392425 26.2331202 C138.80061328 26.23826736 135.96730561 26.2443432 133.13399696 26.25063133 C124.27332871 26.2696864 115.41266882 26.28391722 106.55198401 26.2922433 C96.31609479 26.30201983 86.08042157 26.32834884 75.84460849 26.36874419 C67.93797182 26.39887923 60.03139717 26.41370966 52.12470418 26.41702431 C47.39998094 26.41937767 42.6754884 26.42837508 37.95082664 26.45348549 C33.50617068 26.47672581 29.06189796 26.48101583 24.61719704 26.47072411 C22.98576205 26.47022766 21.35430845 26.47658018 19.72293091 26.49028015 C17.49538325 26.50794015 15.26921976 26.50092354 13.04167175 26.48774719 C11.7952399 26.49013555 10.54880804 26.4925239 9.26460552 26.49498463 C5.39877552 25.9088414 3.7553331 24.71913914 1 22 C-2.2829526 15.4340948 0 7.34090518 0 0 Z " fill="#FFB844" transform="translate(37,230)"/>
<path d="M0 0 C1.67542976 0.28604898 3.34385343 0.61781233 5 1 C5.33 3.97 5.66 6.94 6 10 C6.9075 8.989375 7.815 7.97875 8.75 6.9375 C10.296875 5.21484375 10.296875 5.21484375 12 4 C14.203125 4.31640625 14.203125 4.31640625 16 5 C16.25 7.25 16.25 7.25 16 10 C14.125 12.3125 14.125 12.3125 12 14 C11.34 14 10.68 14 10 14 C10 14.66 10 15.32 10 16 C13.3 16 16.6 16 20 16 C20.38218767 17.65614657 20.71395102 19.32457024 21 21 C19.41727399 22.58272601 17.61965997 22.34735747 15.4375 22.5625 C14.19806641 22.68818359 14.19806641 22.68818359 12.93359375 22.81640625 C12.29550781 22.87699219 11.65742187 22.93757813 11 23 C11.845625 23.721875 12.69125 24.44375 13.5625 25.1875 C16 28 16 28 15.8125 30.8125 C15.544375 31.534375 15.27625 32.25625 15 33 C10.68607774 32.5206753 8.83430453 31.2542015 6 28 C5.67 30.97 5.34 33.94 5 37 C3.34385343 37.38218767 1.67542976 37.71395102 0 38 C-1.58272601 36.41727399 -1.34735747 34.61965997 -1.5625 32.4375 C-1.64628906 31.61121094 -1.73007813 30.78492188 -1.81640625 29.93359375 C-1.87699219 29.29550781 -1.93757813 28.65742188 -2 28 C-2.721875 28.845625 -3.44375 29.69125 -4.1875 30.5625 C-7 33 -7 33 -9.8125 32.8125 C-10.534375 32.544375 -11.25625 32.27625 -12 32 C-12 28 -12 28 -9.5 25.25 C-8.675 24.5075 -7.85 23.765 -7 23 C-9.97 22.67 -12.94 22.34 -16 22 C-16.38218767 20.34385343 -16.71395102 18.67542976 -17 17 C-15.41727399 15.41727399 -13.61965997 15.65264253 -11.4375 15.4375 C-10.61121094 15.35371094 -9.78492187 15.26992187 -8.93359375 15.18359375 C-8.29550781 15.12300781 -7.65742187 15.06242188 -7 15 C-7.44472656 14.61328125 -7.88945313 14.2265625 -8.34765625 13.828125 C-8.91355469 13.30734375 -9.47945313 12.7865625 -10.0625 12.25 C-10.63097656 11.73953125 -11.19945313 11.2290625 -11.78515625 10.703125 C-13 9 -13 9 -12.68359375 6.796875 C-12.45800781 6.20390625 -12.23242188 5.6109375 -12 5 C-10.203125 4.31640625 -10.203125 4.31640625 -8 4 C-6.296875 5.21484375 -6.296875 5.21484375 -4.75 6.9375 C-4.22921875 7.50339844 -3.7084375 8.06929687 -3.171875 8.65234375 C-2.78515625 9.09707031 -2.3984375 9.54179687 -2 10 C-1.93941406 9.36191406 -1.87882812 8.72382813 -1.81640625 8.06640625 C-1.73261719 7.24011719 -1.64882812 6.41382813 -1.5625 5.5625 C-1.48128906 4.73878906 -1.40007812 3.91507813 -1.31640625 3.06640625 C-1 1 -1 1 0 0 Z " fill="#C8C8CA" transform="translate(76,181)"/>
<path d="M0 0 C1.67542976 0.28604898 3.34385343 0.61781233 5 1 C5.33 3.97 5.66 6.94 6 10 C6.9075 8.989375 7.815 7.97875 8.75 6.9375 C10.296875 5.21484375 10.296875 5.21484375 12 4 C14.203125 4.31640625 14.203125 4.31640625 16 5 C16.3125 7.1875 16.3125 7.1875 16 10 C13.5 12.8125 13.5 12.8125 11 15 C13.97 15.33 16.94 15.66 20 16 C20.38218767 17.65614657 20.71395102 19.32457024 21 21 C19.41727399 22.58272601 17.61965997 22.34735747 15.4375 22.5625 C14.19806641 22.68818359 14.19806641 22.68818359 12.93359375 22.81640625 C12.29550781 22.87699219 11.65742188 22.93757813 11 23 C12.98 24.98 14.96 26.96 17 29 C16.34 30.32 15.68 31.64 15 33 C10.68607774 32.5206753 8.83430453 31.2542015 6 28 C5.67 30.97 5.34 33.94 5 37 C3.34385343 37.38218767 1.67542976 37.71395102 0 38 C-1.58272601 36.41727399 -1.34735747 34.61965997 -1.5625 32.4375 C-1.64628906 31.61121094 -1.73007813 30.78492188 -1.81640625 29.93359375 C-1.87699219 29.29550781 -1.93757812 28.65742188 -2 28 C-2.721875 28.845625 -3.44375 29.69125 -4.1875 30.5625 C-7 33 -7 33 -9.8125 32.8125 C-10.534375 32.544375 -11.25625 32.27625 -12 32 C-11.5206753 27.68607774 -10.2542015 25.83430453 -7 23 C-9.97 22.67 -12.94 22.34 -16 22 C-16.38218767 20.34385343 -16.71395102 18.67542976 -17 17 C-16 16 -16 16 -13.71484375 15.90234375 C-12.34005859 15.91974609 -12.34005859 15.91974609 -10.9375 15.9375 C-10.01839844 15.94652344 -9.09929687 15.95554688 -8.15234375 15.96484375 C-7.44207031 15.97644531 -6.73179687 15.98804688 -6 16 C-6 15.34 -6 14.68 -6 14 C-6.928125 13.566875 -6.928125 13.566875 -7.875 13.125 C-10 12 -10 12 -12 10 C-12.125 7.375 -12.125 7.375 -12 5 C-10.203125 4.31640625 -10.203125 4.31640625 -8 4 C-6.296875 5.21484375 -6.296875 5.21484375 -4.75 6.9375 C-4.22921875 7.50339844 -3.7084375 8.06929687 -3.171875 8.65234375 C-2.78515625 9.09707031 -2.3984375 9.54179687 -2 10 C-1.93941406 9.36191406 -1.87882813 8.72382813 -1.81640625 8.06640625 C-1.73261719 7.24011719 -1.64882812 6.41382813 -1.5625 5.5625 C-1.48128906 4.73878906 -1.40007812 3.91507813 -1.31640625 3.06640625 C-1 1 -1 1 0 0 Z " fill="#C8C8CA" transform="translate(176,181)"/>
<path d="M0 0 C1.67542976 0.28604898 3.34385343 0.61781233 5 1 C5.33 3.97 5.66 6.94 6 10 C6.9075 8.989375 7.815 7.97875 8.75 6.9375 C10.296875 5.21484375 10.296875 5.21484375 12 4 C14.203125 4.31640625 14.203125 4.31640625 16 5 C16.3125 7.1875 16.3125 7.1875 16 10 C13.5 12.8125 13.5 12.8125 11 15 C13.97 15.33 16.94 15.66 20 16 C20.38218767 17.65614657 20.71395102 19.32457024 21 21 C19.41727399 22.58272601 17.61965997 22.34735747 15.4375 22.5625 C14.19806641 22.68818359 14.19806641 22.68818359 12.93359375 22.81640625 C12.29550781 22.87699219 11.65742188 22.93757813 11 23 C11.845625 23.721875 12.69125 24.44375 13.5625 25.1875 C16 28 16 28 15.8125 30.8125 C15.544375 31.534375 15.27625 32.25625 15 33 C10.68607774 32.5206753 8.83430453 31.2542015 6 28 C5.67 30.97 5.34 33.94 5 37 C3.34385343 37.38218767 1.67542976 37.71395102 0 38 C-1.58272601 36.41727399 -1.34735747 34.61965997 -1.5625 32.4375 C-1.64628906 31.61121094 -1.73007813 30.78492188 -1.81640625 29.93359375 C-1.87699219 29.29550781 -1.93757813 28.65742188 -2 28 C-2.721875 28.845625 -3.44375 29.69125 -4.1875 30.5625 C-7 33 -7 33 -9.8125 32.8125 C-10.534375 32.544375 -11.25625 32.27625 -12 32 C-11.5206753 27.68607774 -10.2542015 25.83430453 -7 23 C-9.97 22.67 -12.94 22.34 -16 22 C-16.38218767 20.34385343 -16.71395102 18.67542976 -17 17 C-15.41727399 15.41727399 -13.61965997 15.65264253 -11.4375 15.4375 C-10.61121094 15.35371094 -9.78492187 15.26992187 -8.93359375 15.18359375 C-8.29550781 15.12300781 -7.65742187 15.06242188 -7 15 C-7.825 14.278125 -8.65 13.55625 -9.5 12.8125 C-12 10 -12 10 -12.3125 7.1875 C-12.209375 6.465625 -12.10625 5.74375 -12 5 C-10.203125 4.31640625 -10.203125 4.31640625 -8 4 C-6.296875 5.21484375 -6.296875 5.21484375 -4.75 6.9375 C-4.22921875 7.50339844 -3.7084375 8.06929687 -3.171875 8.65234375 C-2.78515625 9.09707031 -2.3984375 9.54179687 -2 10 C-1.93941406 9.36191406 -1.87882812 8.72382813 -1.81640625 8.06640625 C-1.73261719 7.24011719 -1.64882812 6.41382813 -1.5625 5.5625 C-1.48128906 4.73878906 -1.40007812 3.91507813 -1.31640625 3.06640625 C-1 1 -1 1 0 0 Z " fill="#C8C9CA" transform="translate(126,181)"/>
</svg>
